<svg width="640" height="480" xmlns="http://www.w3.org/2000/svg">
 <!-- Created with Method Draw - http://github.com/duopixel/Method-Draw/ -->
 <g>
  <title>background</title>
  <rect fill="#e5e5e5" id="canvas_background" height="482" width="642" y="-1" x="-1"/>
  <g display="none" overflow="visible" y="0" x="0" height="100%" width="100%" id="canvasGrid">
   <rect fill="url(#gridpattern)" stroke-width="0" y="0" x="0" height="100%" width="100%"/>
  </g>
 </g>
 <g>
  <title>Layer 1</title>
  <text xml:space="preserve" text-anchor="start" font-family="Helvetica, Arial, sans-serif" font-size="24" id="svg_1" y="257.5" x="121.71094" stroke-width="0" stroke="#e5e5e5" fill="#b2b2b2">https://joaosilgo.github.io/dummy_db/</text>
  <path stroke="#e5e5e5" id="svg_2" d="m238.96875,109.57708c-0.84863,0 -1.28482,-0.60636 -1.28482,-1.33348c0,-0.60621 0.21806,-1.19478 0.84863,-1.19478c0.43619,0 1.09283,0.58857 1.31089,1.19478c0.43619,0.88264 0,1.33348 -0.8747,1.33348zm145.06405,34.59787c1.94152,0 2.37765,0.15551 1.28482,1.19464c-0.63056,0.72713 -1.94146,1.33334 -2.57202,1.33334c-0.65657,0 -1.31089,-0.60621 -1.31089,-1.33334c0,-0.74497 0.87476,-1.19464 2.59809,-1.19464zm-135.54876,-42.32099c-1.94146,-0.29421 -2.15959,-1.78405 0,-2.23386c1.09276,-0.13852 1.72339,0.29417 1.72339,1.19478c0,0.74487 -0.63063,1.17774 -1.72339,1.03908zm-24.20068,47.06514c2.59809,-0.43292 2.59809,-0.74407 1.72339,-1.76626c-0.65432,-0.74407 -0.87239,-1.64459 -0.43619,-1.93885c0.21806,-0.45061 1.31089,0 1.94146,0.88273c0.8747,1.19478 1.52896,1.35123 3.25235,0.60621c1.06913,-0.44977 1.94146,-0.74478 1.94146,-0.29417c0,0.29417 0.65663,0 1.50526,-0.60621c1.31096,-0.88273 1.52902,-2.82238 0.21813,-3.86156c-1.06676,-0.88273 -6.481,-0.58847 -7.98626,0.44977c-0.87239,0.74501 -1.52902,0.58941 -2.37765,-0.74393c-1.31089,-2.21701 -1.31089,-2.52826 1.72333,-2.66678c2.59809,0 2.59809,0 0.43619,-0.90052c-1.09045,-0.43292 -2.15952,-1.33334 -2.15952,-1.92191c0,-1.48974 3.01052,-2.37247 4.32142,-1.3333c0.43619,0.43282 1.28489,0.88273 2.15959,0.88273c1.72339,0 9.95141,-5.0386 9.95141,-6.07777c0,-0.45057 0.851,-0.74473 1.72339,-0.45057c1.06907,0.1564 3.01059,-0.29417 4.97812,-1.03918c2.79008,-1.19469 2.79008,-1.33334 1.28482,-3.2722c-1.06676,-1.33334 -2.37765,-1.78405 -5.41193,-1.78405c-3.44672,0 -4.32142,0.29431 -5.38817,2.07836c-0.43857,1.19464 -1.7494,2.07742 -2.59809,2.07742c-1.50526,0 -1.94146,-1.33254 -0.43619,-2.07742c0.65426,-0.29431 1.09045,-1.33334 1.09045,-2.37252c0,-1.6277 -0.43619,-1.92191 -3.25235,-1.48894c-2.81615,0.29417 -2.81615,0.15551 -2.15959,-2.07845c0.43619,-1.3333 1.06676,-2.52798 1.50533,-2.66664c0.43619,-0.15551 0.87232,-1.48894 0.87232,-2.82229c0,-2.66692 1.2872,-3.11669 3.66722,-1.19478c1.09039,1.03913 1.74709,1.19478 2.15952,0.29417c0.43619,-0.58847 1.96515,-0.72713 4.34518,-0.43296c3.22865,0.58857 3.44672,0.43296 3.01052,-1.33334c-0.21806,-1.03904 -0.4385,-2.23382 -0.65657,-2.52798c0,-0.44991 -1.06676,-1.03918 -2.35396,-1.48909c-2.59809,-0.74473 -3.25235,-2.52798 -0.8747,-2.52798c0.65663,0 1.28713,-0.29431 1.28713,-0.88367c0,-0.44991 1.31096,-0.74407 3.03428,-0.60631c2.38003,0.1564 3.66485,-0.43273 6.9172,-3.54928c2.38003,-2.23396 4.10335,-3.42864 4.32148,-2.82243c0.21806,0.74407 1.31089,1.1769 2.37996,1.1769c1.72339,0 1.94152,-0.43282 1.31096,-2.37168c-0.22044,-1.33344 -1.31096,-2.96094 -1.96753,-3.70596c-1.94152,-1.64525 -1.94152,-3.56716 0,-2.97883c1.52896,0.58941 6.28657,-1.03824 6.28657,-2.07737c0,-0.45061 0.63294,-0.74487 1.50526,-0.74487c0.87476,0 1.2872,0.90047 1.2872,2.07831c0,1.48894 0.43619,2.07751 1.52902,1.64455c0.84863,-0.3112 1.50533,-1.19478 1.50533,-1.7832c0,-1.78414 6.91713,-4.90074 8.64046,-4.01721c0.6567,0.2944 1.31089,0 1.53146,-1.03904c0.6305,-2.07831 4.5371,-3.70596 6.26043,-2.66678c0.87476,0.43282 1.72346,0.29431 1.9439,-0.15551c0.43613,-0.58936 2.15952,-1.03918 4.10098,-1.17793c1.94146,-0.15551 4.53955,-0.74487 5.63237,-1.35109c4.10098,-1.92191 8.20439,-1.78325 9.92772,0.2952c1.09283,1.48885 1.52896,1.48885 1.52896,0.44967c0,-1.33344 0.85107,-1.48894 6.04487,-1.03904c8.22809,0.58936 9.51529,0.58936 12.54957,-0.15565c1.94146,-0.43292 2.59802,-0.29426 2.59802,0.90038c0,0.74501 0.63063,1.33348 1.50533,1.33348c0.65426,0 1.28482,-0.43296 1.28482,-0.88358c0,-1.19464 3.47285,-1.7832 6.50707,-1.19464c2.35396,0.58936 2.57202,0.74473 1.94146,4.74495c-0.21806,2.38947 0,4.01711 0.4125,4.01711c0.43613,0 0.8747,-1.03918 0.8747,-2.52812c0,-2.51118 2.37765,-3.54951 3.25235,-1.48899c0.21813,0.74412 0.84863,0.44981 1.28482,-0.72708c1.09289,-3.11749 3.47285,-1.48988 2.81615,1.92191c-0.65419,2.82229 -0.65419,2.82229 1.28726,1.78311c1.09276,-0.44981 1.94139,-1.62751 1.94139,-2.37168c0,-0.74492 0.6567,-1.62845 1.52909,-1.9397c1.72326,-0.58833 3.66716,1.64469 3.03422,3.27299c-0.21806,0.74421 -0.21806,1.33344 0.41243,1.33344c0.43857,0 0.87476,-0.43282 0.87476,-0.74487c0,-0.43292 1.06907,-0.58857 2.37996,-0.29417c2.81384,0.44981 3.22628,1.64445 0.84869,2.37158c-0.63056,0.31205 -1.2872,1.03918 -1.2872,1.64549c0,1.03918 0.4385,1.03918 2.81615,0c3.88291,-1.7832 5.60624,-1.64549 6.26294,0.29417c0.43613,1.03918 1.28713,1.48979 2.15952,1.03918c0.8747,-0.1556 2.81615,0.45061 4.32148,1.48894c1.31089,0.88353 3.25235,1.62765 4.12705,1.62765c1.2872,0 1.2872,0.74497 0.84863,2.82318c-0.43613,2.23396 -0.43613,2.52812 0.87476,1.62774c1.72333,-1.47214 2.37765,-1.33358 3.01059,0.74393c0.21806,1.03918 1.74702,1.78405 3.47041,2.23386c1.94146,0.2952 3.01059,1.03913 3.01059,1.92271c0,0.90047 0.65419,1.93885 1.31089,2.52822c1.72339,1.03904 1.28482,4.15563 -0.6567,5.19476c-0.65419,0.31125 -1.5052,0.15565 -1.72333,-0.29417c-0.43613,-0.45071 -1.94146,-0.45071 -4.75768,0c-4.53955,1.03824 -5.38817,1.33334 -4.32142,2.68363c0.65663,0.88273 8.2067,0.58857 12.33144,-0.45061c1.2872,-0.44986 1.72339,0 1.72339,2.07836c0,1.48885 -0.43619,2.66678 -1.09045,2.66678c-0.43857,0 -0.851,0.44977 -0.851,1.19464c0,1.78396 1.06913,1.62751 3.88529,-0.44991c1.50289,-1.19464 2.37758,-1.48974 3.44672,-0.74473c1.09045,0.74473 1.31089,0.74473 1.31089,-0.44991c0,-0.72802 -0.43857,-1.33334 -1.09276,-1.33334c-0.4125,0 -0.85107,-0.58936 -0.85107,-1.17793c0,-0.74478 0.63294,-1.33334 1.50526,-1.33334c0.65663,0 1.52902,0.29417 1.52902,0.72713c0,0.4508 0.851,1.03913 1.94383,1.19478c1.50295,0.45071 1.94146,1.03918 1.72333,2.82238c-0.4385,3.41156 0.43626,4.45083 3.66485,3.86236c1.52902,-0.2952 2.37758,0 1.72339,0.58847c-0.19437,0.29417 0,1.03918 0.43619,1.35019c1.7494,0.88362 1.09276,2.96118 -0.84869,2.96118c-2.37996,0 -3.03428,0.74473 -1.74702,2.07821c0.87232,0.74487 1.52896,0.88273 2.37758,0.29426c1.96753,-1.48894 2.38003,-0.29426 2.59809,5.64561c0,2.9778 0.43619,5.35041 0.87239,5.35041c1.06907,0 0.65663,3.27299 -0.87239,4.60634c-0.851,0.74407 -0.851,1.47116 -0.21806,2.07737c1.52896,1.33348 0,5.19504 -1.9439,5.19504c-1.72326,0 -4.97567,2.82229 -4.97567,4.15572c0,1.62854 -2.79008,0 -3.44672,-1.78325c-0.65426,-1.6276 -0.65426,-1.6276 -1.09283,-0.45061c-0.41243,1.35113 1.94383,5.50686 3.90905,6.68455c1.28713,0.90061 -1.09283,2.38947 -2.81622,1.78325c-0.87476,-0.29417 -1.2872,-1.1769 -1.2872,-2.07742c0,-2.52798 -5.41193,-8.90081 -9.51529,-11.29018c-2.18321,-1.17793 -4.12474,-2.51127 -4.12474,-2.96104c0,-0.90052 -6.91951,-3.70596 -10.80242,-4.60643c-2.16196,-0.45061 -2.81622,-0.29421 -2.81622,0.90047c0,0.88273 -0.41243,1.1769 -1.2872,0.88273c-1.94146,-0.58857 -2.81615,0.74501 -1.09276,2.07836c2.37996,1.6276 1.96753,3.56716 -0.63056,2.82229c-1.74709,-0.44981 -1.96522,-0.29431 -1.31089,2.23391c0.21806,1.472 0.65663,3.41156 0.65663,4.29429c0,0.90052 0.43613,1.48909 0.87232,1.48909c0.63301,0 0.851,-0.29431 0.4125,-0.74407c-0.21806,-0.45071 0.22051,-0.88358 1.09276,-0.88358c0.6567,0 1.2872,0.58927 1.2872,1.17774c0,0.60631 -0.85094,1.19464 -2.37996,1.03927c-1.28482,0 -2.37765,-0.43296 -2.37765,-0.72722c0,-1.35123 -5.82674,-10.5462 -7.55007,-11.89649c-1.94152,-1.47214 -0.65432,-1.92191 -15.99635,5.0562c-2.37758,1.03918 -4.97567,3.27299 -6.28657,4.90074c-1.06913,1.62751 -2.79246,3.27299 -3.66485,3.56716c-0.8747,0.29431 -4.10335,2.66678 -6.91957,5.1949c-12.11338,11.13374 -10.14585,12.46717 -9.29716,35.20418c3.66716,17.22916 3.66716,17.22916 3.66716,17.22916c-8.6429,0 -8.6429,0 -8.6429,0c-7.13526,0 -7.13526,0 -7.13526,0c0.65426,-15.89671 0.65426,-15.89671 0.65426,-15.89671c0.43613,-1.33245 0.65663,-4.01697 0.87476,-5.50606c0.21806,-0.88353 -6.06857,-4.74509 -5.85044,-5.62772c0,-0.74487 6.5047,1.33348 6.5047,0.58847c1.06907,-10.83957 0,-19.46312 -2.81622,-24.05256c-0.65426,-2.82243 -6.0685,-11.8956 -6.91713,-11.8956c-0.21813,0 -1.74709,-0.88353 -3.25235,-1.92271c-2.59816,-1.93876 -3.66485,-2.07751 -18.15825,-2.66678c-15.56009,-0.60542 -15.56009,-0.60542 -15.56009,-0.60542c-3.68854,2.07751 -3.68854,2.07751 -3.68854,2.07751c-2.15952,1.35109 -4.32142,2.23386 -4.95205,2.23386c-1.31089,0 -6.72514,3.11734 -9.07909,4.90046c-0.21806,0 -0.43613,-0.15537 -0.43613,-0.29417c-0.21813,0 -0.21813,0 -0.21813,-0.1556c-0.21806,-0.43282 -0.4385,-0.88353 -0.8747,-1.33334c1.31089,-0.74487 2.37996,-1.19548 2.81615,-1.03904c0.65426,0.29417 1.2872,0 1.2872,-0.74501c0,-0.74407 -1.2872,-1.03913 -4.73392,-0.74407c-4.12711,0.44991 -5.19618,0.60542 -5.85044,2.37172c-1.06913,0.90047 -1.2872,2.23391 -0.65426,3.27309c-0.22051,1.33334 -0.22051,2.23382 0,2.23382c0.21806,0 0.43613,-0.29417 1.09045,-0.60621c0,0.15565 0.21806,0.31205 0.4385,0.45061c-2.1619,0.44981 -3.25472,1.78325 -3.03428,3.11659c-1.09276,0.60621 -2.1619,0.90047 -3.47272,1.35029c0,0 0,-0.15551 -0.19444,-0.15551c0.851,-1.33334 1.2872,-2.82243 1.50526,-5.05624c0.43857,-2.51127 0.21806,-4.15572 -0.43613,-4.15572c-0.43619,0 -0.8747,0.60621 -0.8747,1.4888c0.218,0.74501 -0.19444,1.48909 -1.06682,1.62774c-0.65663,0.15551 -1.09276,-0.13866 -1.09276,-0.88273c0,-1.78405 -0.84869,-1.78405 -2.79253,-0.1564c-0.87232,0.60621 -2.59571,1.33344 -4.10098,1.64549c-1.96753,0.43282 -2.59809,0.13852 -3.47279,-1.48909c-0.65426,-1.33334 -1.09045,-2.82318 -0.65426,-3.41165c0.21806,-0.74487 0.21806,-1.35029 -0.63056,-1.35029c-2.38003,0 -0.65663,-2.37261 2.15952,-2.82323zm18.59438,-34.14726c-1.31089,-0.15551 -2.38003,-0.58847 -2.81615,-1.19469c-0.21813,-0.88353 -0.43619,-0.88353 -0.43619,0c0,0.60621 -0.8747,1.03918 -1.72339,1.19469c-1.52896,0 -1.52896,0.1556 0.21813,0.74501c1.06669,0.29417 2.15952,0.74393 2.37758,0.74393c0.19437,0 1.2872,-0.44977 2.38003,-0.74393c1.94146,-0.74501 1.94146,-0.74501 0,-0.74501zm171.42425,23.9139c0.4125,0.29431 0.84869,-0.1564 0.84869,-0.90047c0,-0.58927 -0.43619,-1.17783 -0.84869,-1.17783c-0.65657,0 -1.09276,0.29426 -1.09276,0.72713c0,0.45071 0.43619,1.05692 1.09276,1.35118zm-1.52896,1.33344c-0.21806,-0.45071 -1.2872,-1.03913 -2.1619,-1.03913c-0.63056,0 -1.06676,0.58842 -0.63056,1.03913c0.19437,0.44981 1.06907,0.74412 1.94146,0.74412c0.851,0 1.06907,-0.29431 0.851,-0.74412zm-1.94146,6.68375c0.65426,0 1.52896,-0.15551 1.52896,-0.29417c0,-0.31205 -0.8747,-0.60621 -1.52896,-0.90052c-0.851,-0.29426 -1.50533,-0.13866 -1.50533,0.29431c0,0.45061 0.65432,0.90038 1.50533,0.90038zm1.72339,-14.11247c0.87232,-0.2944 1.31083,-0.74497 1.09045,-1.17793c-0.65432,-1.05598 -4.31917,-1.05598 -4.31917,0c0,1.17793 1.28489,1.62774 3.22872,1.17793zm-11.87155,-11.13477c-1.09283,0.45071 -1.74709,1.33344 -1.52909,1.78405c1.09283,1.17704 2.38009,0.88273 3.47048,-1.03918c1.06913,-1.78405 0.63294,-2.07821 -1.94139,-0.74487zm-4.12711,22.87477c5.63231,4.00008 5.85044,4.15572 5.85044,2.82238c0,-0.74407 -0.43619,-1.35029 -1.09283,-1.35029c-0.6305,0 -1.72333,-0.74501 -2.37758,-1.6276c-0.63063,-0.88367 -1.94146,-1.78419 -3.01059,-1.78419c-1.96515,0 -1.96515,0.15645 0.63056,1.9397zm-4.53724,-6.9959c1.30858,0 1.94152,-0.29417 1.09052,-0.43287c-0.65426,-0.29426 -1.72339,-0.29426 -2.37765,0c-0.6567,0.1387 0,0.43287 1.28713,0.43287zm-6.26287,-20.19025c0.65426,0.44991 2.59571,1.03838 4.31904,1.33348c3.03435,0.44977 3.25241,0.44977 1.52902,-0.74487c-1.96515,-1.47214 -7.35332,-1.92191 -5.84806,-0.58861zm-13.18251,-24.64089c-0.65426,0.43282 -0.87232,1.33334 -0.65426,1.92177c0.43619,1.19478 1.72339,0.15565 1.72339,-1.6276c0,-0.90052 -0.21813,-1.03918 -1.06913,-0.29417zm6.481,32.06975c1.72339,0.74398 2.38003,0.74398 3.25479,-0.2951c1.72333,-1.6277 0.6305,-2.37168 -2.59816,-1.3333c-2.59809,0.72793 -2.59809,0.72793 -0.65663,1.6284zm-4.31904,-7.42886c3.25235,-1.62746 3.25235,-1.62746 0.65426,-1.62746c-1.74709,0 -3.03428,0.58833 -3.68854,1.62746c-0.4125,1.03838 -0.851,1.62774 -0.63294,1.62774c0,0 1.72339,-0.88362 3.66722,-1.62774zm-4.75768,24.06955c1.50289,1.62774 4.10104,1.62774 3.25235,-0.1556c-0.21806,-0.58927 -0.4385,-1.33334 -0.4385,-1.48979c0,-0.13866 -0.87239,-0.13866 -1.94146,0.15645c-1.74709,0.29426 -1.74709,0.74407 -0.87239,1.48894zm-6.70144,-6.09538c1.72333,1.6277 2.59809,1.7832 4.53955,0.58857c1.2872,-0.74407 1.2872,-0.74407 0,-0.88273c-0.65426,0 -2.37765,-0.15645 -3.88291,-0.45071c-2.1619,-0.58847 -2.1619,-0.58847 -0.65663,0.74487zm-0.21806,-16.19092c1.09276,0 2.37996,-2.37247 1.72339,-3.11655c-0.84869,-0.74487 -2.59578,0.44977 -2.59578,1.7832c0,0.74492 0.43619,1.33334 0.87239,1.33334zm-10.58204,10.0955c-1.31089,0.60621 -1.09276,0.74501 0.63063,0.74501c1.09276,0 2.37758,-0.2952 2.81615,-0.74501c0.65419,-1.17769 -1.50533,-1.17769 -3.44678,0zm0.21813,13.07353c0.19437,0.15645 0.84863,-0.1556 1.50526,-0.88273c0.65419,-0.60621 2.59578,-1.35109 4.10098,-1.64539c1.94146,-0.44991 2.81622,-1.17699 2.81622,-2.23391c0,-2.51024 -3.03428,-1.76631 -6.263,1.48984c-1.31083,1.64459 -2.37758,2.97803 -2.15945,3.2722zm-2.37996,-6.83945c1.94139,-1.62751 1.94139,-1.92271 0.41237,-2.37252c-1.72333,-0.58857 -3.00815,0.74501 -3.00815,3.11659c-0.22044,1.78405 -0.22044,1.78405 2.59578,-0.74407zm-3.47048,-17.52422c0.21806,1.19464 0.65426,1.03913 1.94139,-1.17783c1.52909,-2.37172 1.52909,-2.68377 0.21813,-2.68377c-0.84863,0 -1.72339,0.44991 -1.94146,1.19483c-0.43619,0.58842 -0.43619,1.93965 -0.21806,2.66678zm-1.06913,-12.17306c0,0.60542 0.41243,2.07751 0.851,3.11659c0.65426,2.07831 0.65426,2.07831 1.31089,0.29426c0.84863,-1.78311 0,-4.44989 -1.31089,-4.44989c-0.63294,0 -0.851,0.44967 -0.851,1.03904zm-15.14528,4.8998c-1.06907,1.03918 -1.06907,2.07836 -0.22044,5.1949c0.43857,2.23386 1.5314,4.46777 2.1619,4.90074c1.09283,0.74487 1.31089,0 1.52896,-4.60563c0,-5.62787 -1.09276,-7.41177 -3.47041,-5.49001zm1.94146,15.74111c0.21813,0.29431 0.65426,-0.29426 0.43619,-1.17779c0,-0.90052 -0.21806,-1.03918 -0.65426,-0.44981c-0.19444,0.58847 -0.19444,1.33334 0.21806,1.6276zm7.79189,-13.95706c-0.21806,0.29431 -0.21806,2.37261 0.43619,4.60563c0.65663,3.86236 0.851,4.01787 1.06913,1.19548c0.21806,-4.60643 -0.21813,-6.84025 -1.50533,-5.80112zm-7.3557,41.88807c1.31089,-1.78405 3.47048,-4.76208 4.97574,-6.54599c1.72333,-1.92205 2.81615,-4.45003 3.25235,-6.97815c0.63294,-4.00022 0.63294,-4.00022 0.63294,-4.00022c-2.59809,2.21697 -2.59809,2.21697 -2.59809,2.21697c-1.2872,1.19478 -2.15959,2.52812 -2.15959,2.97803c0,1.17774 -4.10335,8.60646 -5.39055,9.9399c-0.65426,0.74393 -1.74709,2.38947 -1.94146,3.56716c-1.09283,3.41095 0.851,2.82238 3.22865,-1.17769zm-15.34203,15.2904c0.65663,2.96094 0.65663,2.96094 2.81622,-3.4117c1.2872,-3.42869 3.22865,-8.91766 4.53955,-12.32941c1.72333,-4.31137 2.37996,-7.87853 2.37996,-12.91779c0,-6.54533 -0.22044,-6.68399 -1.94377,-5.93898c-3.90667,1.92186 -6.06857,7.27227 -6.94096,17.66193c-0.41243,5.35144 -0.851,10.70185 -1.28713,11.87969c-0.21813,1.19469 0,3.4286 0.43613,5.05624zm0.43857,-38.00966c0.84863,1.47209 1.72339,2.66678 1.72339,2.66678c0.21806,0 1.28476,-0.90052 2.15952,-2.07821c1.09276,-1.03833 2.81615,-2.23302 3.47048,-2.66598c2.57433,-1.35109 3.22859,-5.50681 1.06907,-8.32919c-1.72339,-2.52812 -6.481,-5.35135 -7.35577,-4.45083c-0.43613,0.29426 -1.06669,3.11749 -1.50526,6.38968c-0.87232,4.9006 -0.87232,6.39034 0.43857,8.46776zm-1.31089,-34.0093c0.43619,0.2951 0.87232,0.13866 0.87232,-0.31111c0,-0.58936 -0.43613,-1.17793 -0.87232,-1.47214c-0.65663,-0.312 -1.06913,-0.1556 -1.06913,0.43296c0,0.44981 0.4125,1.03918 1.06913,1.35029zm-70.03234,39.93133c3.01052,0.1564 3.01052,0.1564 3.01052,0.1564c3.03428,0 6.06857,-1.92271 6.06857,-3.56716c0,-1.03918 -0.21806,-1.03918 -9.07909,3.41076zm1.2872,-4.15577c0,0.45085 0.43619,0.90052 1.09283,0.90052c1.06676,0 4.10098,-2.66678 3.44672,-3.11655c-0.65663,-0.60621 -4.53955,1.3333 -4.53955,2.21603zm2.37996,-10.23401c3.25241,2.96174 4.75768,3.256 6.481,1.3333c1.74709,-1.78311 0.21813,-2.97789 -4.97805,-3.41085c-4.31911,-0.45071 -4.31911,-0.45071 -1.50295,2.07756zm-2.37996,-8.32844c0,0.31111 1.52896,1.03824 3.25235,1.64445c7.98633,2.82243 9.51529,2.82243 9.29716,0.1388c0,-1.62774 -3.25235,-5.195 -4.53955,-5.195c-1.52896,0 -8.00996,2.82238 -8.00996,3.41174zm11.67718,21.09072c2.37765,0 2.59571,-0.44991 0.65426,-1.17704c-0.8747,-0.1564 -1.72339,0 -1.94146,0.43296c-0.43857,0.44967 0.21806,0.74407 1.2872,0.74407zm1.72339,-34.89217c-1.50533,-0.74497 -3.44916,-1.03913 -4.32148,-0.74497c-1.50526,0.58936 -1.2872,0.74497 0.87232,1.19464c1.06913,0.2952 3.25479,0.58941 4.32148,0.72807c1.2872,0 1.2872,-0.2951 -0.87232,-1.17774zm-0.19437,5.35041c1.28476,0 1.50526,-0.1556 0.63056,-0.60542c-0.63056,-0.13856 -1.50533,-0.13856 -1.94152,0.15565c-0.21806,0.29417 0.43619,0.58857 1.31096,0.44977zm1.28476,3.41179c-3.03422,0 -3.03422,0.13852 -1.28476,1.3333c2.15952,1.33334 2.79008,1.48885 3.66485,0.58847c1.5052,-1.17704 0.43613,-1.92177 -2.38009,-1.92177zm4.32155,-16.77949c-0.87476,-0.74487 -1.09283,0.58857 -0.65432,2.21617c0.21806,1.03918 1.09045,1.93956 1.52902,1.93956c0.84863,0 0.21806,-3.27299 -0.8747,-4.15572zm6.91713,19.60163c-0.43613,0.1388 0.65663,1.03918 1.94383,1.78414c1.31089,0.74407 2.37758,1.03829 2.37758,0.58847c0,-1.03904 -3.66478,-2.97869 -4.32142,-2.37261zm-5.41193,1.03918c-1.94146,1.03927 -0.84863,3.70591 1.96522,4.15582c1.50526,0.29421 3.88529,1.48899 5.39055,2.66669c1.31089,1.19478 2.37758,1.64549 2.37758,1.19478c0,-1.48894 -8.64052,-8.6235 -9.73335,-8.01728zm8.86103,12.32955c-1.28713,-2.39036 -2.79246,-3.56739 -5.60868,-4.31227c-2.15952,-0.58847 -4.32142,-0.90038 -4.97567,-0.74398c-0.65663,0.15551 1.94146,2.07742 5.63237,4.31128c6.91713,3.86156 6.91713,3.86156 4.95198,0.74497zm11.48044,-22.87486c-0.43619,0 -0.87476,0.58857 -0.87476,1.17704c0,0.74487 0.43857,1.19478 0.87476,1.19478c0.63056,0 1.06913,-0.44991 1.06913,-1.19478c0,-0.58847 -0.43857,-1.17704 -1.06913,-1.17704zm-1.96515,12.17306c0,1.03904 3.68854,0.29426 5.1938,-1.03918c2.15959,-2.23382 1.94146,-2.82238 -0.8747,-2.82238c-1.94146,0 -4.31911,2.0784 -4.31911,3.86156zm6.28663,-32.06989c-0.65663,1.92191 -1.09283,3.54951 -0.8747,3.70596c0.65657,0.58857 2.38003,-3.86147 2.38003,-5.64551c0,-0.74407 -0.6567,0.15645 -1.50533,1.93956zm11.23868,29.99153c-1.09283,0 -1.94152,0.2952 -1.94152,0.88353c0,0.44991 0.63056,0.74501 1.28482,0.74501c0.8747,0 1.72339,-0.2951 1.94383,-0.74501c0.43619,-0.58833 -0.22044,-0.88353 -1.28713,-0.88353zm-2.59816,27.91402c1.2872,2.68457 3.22865,5.1949 4.32148,5.80112c1.09283,0.44991 3.25235,2.52822 4.53955,4.60643c1.2872,2.07751 2.59809,3.70516 2.81622,3.70516c1.06669,0 -1.09283,-13.662 -2.59809,-17.81852c-1.31096,-3.56636 -1.72346,-6.83945 -1.50533,-12.03435c0.19437,-3.86147 0,-7.27321 -0.43613,-7.56742c-0.21813,-0.29426 -1.72339,-0.29426 -3.03428,0c-2.38003,0.58847 -2.59809,1.03918 -2.59809,4.31217c0,2.51038 -0.43626,3.86156 -1.50533,4.44989c-3.03422,1.33348 -2.81615,8.90086 0,14.54553zm-6.26287,-19.89589c-0.43619,-2.23386 -0.87232,-2.52812 -3.25235,-2.52812c-2.81622,0 -2.81622,0.1556 -2.59809,3.2722c0,1.92271 0.4385,4.15652 0.65657,5.19486c0.21813,1.03918 1.06913,2.07821 1.94152,2.23386c1.72333,0.74497 3.66478,-4.44989 3.25235,-8.17279zm-3.25235,14.9953c-1.94152,-1.78325 -3.25235,-3.70516 -3.44678,-4.15572c0,-0.58847 -1.09276,-2.07742 -2.37765,-3.41085c-1.31089,-1.33334 -2.81615,-2.97873 -3.47279,-3.5673c-2.15952,-2.07821 -1.72339,-0.29417 0.65663,4.31137c1.50526,3.11734 4.10104,5.93977 7.13526,8.31225c5.60861,4.01707 6.26294,3.27234 1.50533,-1.48974zm-3.44678,7.29006c2.35396,0 2.15959,-0.15551 -1.09276,-2.52798c-2.15959,-1.48909 -3.66485,-3.11669 -3.66485,-3.86161c0,-0.58842 -2.81622,-2.68372 -6.0685,-4.60563c-3.22872,-1.93951 -6.263,-3.86142 -6.69913,-4.45069c-0.43857,-0.74407 -0.65663,-0.74407 -0.65663,0.13866c0,0.90052 -1.06676,1.03904 -4.53955,0.58847c-2.37765,-0.29431 -4.31911,-0.29431 -4.31911,-0.13786c0,0.29426 0.87232,2.07751 1.74709,3.86142c1.50533,2.96109 2.15952,3.56739 6.9172,4.74434c3.01059,0.74487 7.76813,2.52808 10.80242,3.86142c2.81622,1.35123 6.26294,2.38947 7.57383,2.38947zm-33.74197,5.03925c0.8747,0 2.1619,-0.29417 3.03422,-0.74473c1.50533,-1.03838 0.22051,-1.03838 -2.59571,0c-1.2872,0.45057 -1.50526,0.58922 -0.4385,0.74473zm-2.37765,-3.70591c2.15959,-0.60532 9.07909,-1.19469 15.36572,-1.19469c11.86924,-0.13866 14.2492,-0.58833 9.49153,-1.48894c-1.5052,-0.29417 -4.95198,-1.03918 -7.76813,-1.78325c-4.97574,-1.33334 -15.14766,-0.88353 -16.21442,0.60556c-0.22044,0.29496 -1.31089,0.45057 -2.37996,0.29496c-2.15959,-0.45061 -4.32148,0.74417 -4.97574,3.11669c-0.8747,1.92177 0.65426,2.07821 6.481,0.44967zm-17.28349,3.41174c0.43619,1.19478 2.59809,1.33334 4.32148,0.29417c1.06669,-0.58842 1.06669,-0.88259 0,-1.78311c-0.8747,-0.88367 -1.50526,-0.88367 -2.81615,-0.13866c-0.8747,0.43296 -1.50533,1.17704 -1.50533,1.6276zm-6.9172,10.3898c0.84869,0 1.28489,0.44991 0.84869,1.33344c-0.19444,0.60621 -0.84869,1.19469 -1.2872,1.19469c-0.65426,0 -1.06676,-0.58847 -1.06676,-1.19469c0,-0.72713 0.63056,-1.33344 1.50526,-1.33344z" stroke-width="1.5" fill="#b2b2b2"/>
 </g>
</svg>